<?xml version="1.0" encoding="utf-8"?>
<!-- Generator: Adobe Illustrator 21.1.0, SVG Export Plug-In . SVG Version: 6.00 Build 0)  -->
<svg version="1.1" id="Layer_1" xmlns="http://www.w3.org/2000/svg" xmlns:xlink="http://www.w3.org/1999/xlink" x="0px" y="0px"
	 viewBox="0 0 369 289" style="enable-background:new 0 0 369 289;" xml:space="preserve">
<style type="text/css">
	.st0{fill:#1A1A1A;}
	.st1{fill:#F2F2F2;}
	.st2{fill:#F7931E;}
	.st3{fill:#007CC1;}
	.st4{fill:#29ABE2;}
	.st5{opacity:0.1;}
	.st6{fill:#FFFFFF;stroke:#29ABE2;stroke-width:3.6102;stroke-miterlimit:10;}
	.st7{fill:#118CB7;}
	.st8{fill:#48C4EF;}
	.st9{fill:#FFFFFF;stroke:#29ABE2;stroke-width:2.5083;stroke-miterlimit:10;}
	.st10{fill:#FFFFFF;stroke:#29ABE2;stroke-width:2.6408;stroke-miterlimit:10;}
	.st11{fill:#FFFFFF;stroke:#29ABE2;stroke-width:2.9348;stroke-miterlimit:10;}
	.st12{fill:#FFFFFF;stroke:#29ABE2;stroke-width:3.6632;stroke-miterlimit:10;}
	.st13{fill:#FFFFFF;stroke:#29ABE2;stroke-width:1.9152;stroke-miterlimit:10;}
	.st14{fill:#FFFFFF;stroke:#29ABE2;stroke-width:1.5133;stroke-miterlimit:10;}
	.st15{fill:#FFFFFF;stroke:#29ABE2;stroke-width:1.0583;stroke-miterlimit:10;}
	.st16{fill:#FFFFFF;stroke:#29ABE2;stroke-width:1.3886;stroke-miterlimit:10;}
	.st17{fill:#FFFFFF;stroke:#29ABE2;stroke-width:1.1484;stroke-miterlimit:10;}
	.st18{fill:#FFFFFF;stroke:#29ABE2;stroke-width:1.9539;stroke-miterlimit:10;}
	.st19{fill:#FFFFFF;stroke:#29ABE2;stroke-width:2.0404;stroke-miterlimit:10;}
	.st20{fill:#FFFFFF;stroke:#29ABE2;stroke-width:2.6832;stroke-miterlimit:10;}
	.st21{fill:#FFFFFF;stroke:#29ABE2;stroke-width:2.516;stroke-miterlimit:10;}
	.st22{fill:none;}
	.st23{fill:#FFFFFF;stroke:#29ABE2;stroke-width:1.862;stroke-miterlimit:10;}
	.st24{fill:#FFFFFF;stroke:#29ABE2;stroke-width:3.0519;stroke-miterlimit:10;}
	.st25{fill:#FFFFFF;stroke:#29ABE2;stroke-width:1.0969;stroke-miterlimit:10;}
	.st26{fill:#FFFFFF;stroke:#29ABE2;stroke-width:1.8317;stroke-miterlimit:10;}
	.st27{fill:#FFFFFF;stroke:#29ABE2;stroke-width:2.3503;stroke-miterlimit:10;}
	.st28{fill:#FFFFFF;stroke:#29ABE2;stroke-width:2.094;stroke-miterlimit:10;}
	.st29{fill:#FFFFFF;stroke:#29ABE2;stroke-width:2.035;stroke-miterlimit:10;}
	.st30{fill:#FFFFFF;stroke:#29ABE2;stroke-width:1.3331;stroke-miterlimit:10;}
	.st31{fill:#FFFFFF;stroke:#29ABE2;stroke-width:1.5586;stroke-miterlimit:10;}
	.st32{fill:#FFFFFF;stroke:#29ABE2;stroke-width:1.255;stroke-miterlimit:10;}
	.st33{fill:#FFFFFF;stroke:#29ABE2;stroke-width:0.989;stroke-miterlimit:10;}
	.st34{fill:#FFFFFF;stroke:#29ABE2;stroke-width:1.7286;stroke-miterlimit:10;}
	.st35{fill:#FFFFFF;stroke:#29ABE2;stroke-width:2.1435;stroke-miterlimit:10;}
	.st36{fill:#FFFFFF;stroke:#29ABE2;stroke-width:3.6463;stroke-miterlimit:10;}
	.st37{fill:#FFFFFF;stroke:#29ABE2;stroke-width:3.1571;stroke-miterlimit:10;}
	.st38{fill:#FFFFFF;stroke:#29ABE2;stroke-width:1.9471;stroke-miterlimit:10;}
	.st39{fill:#FFFFFF;stroke:#29ABE2;stroke-width:1.5343;stroke-miterlimit:10;}
	.st40{fill:#FFFFFF;stroke:#29ABE2;stroke-width:5.6008;stroke-miterlimit:10;}
	.st41{fill:#FFFFFF;stroke:#29ABE2;stroke-width:3.8914;stroke-miterlimit:10;}
	.st42{fill:#FFFFFF;stroke:#29ABE2;stroke-width:4.0969;stroke-miterlimit:10;}
	.st43{fill:#FFFFFF;stroke:#29ABE2;stroke-width:4.553;stroke-miterlimit:10;}
	.st44{fill:#FFFFFF;stroke:#29ABE2;stroke-width:5.6831;stroke-miterlimit:10;}
	.st45{fill:#FFFFFF;stroke:#29ABE2;stroke-width:2.9712;stroke-miterlimit:10;}
	.st46{fill:#FFFFFF;stroke:#29ABE2;stroke-width:2.3477;stroke-miterlimit:10;}
	.st47{fill:#FFFFFF;stroke:#29ABE2;stroke-width:2.1542;stroke-miterlimit:10;}
	.st48{fill:#FFFFFF;stroke:#29ABE2;stroke-width:1.7815;stroke-miterlimit:10;}
	.st49{fill:#FFFFFF;stroke:#29ABE2;stroke-width:3.0313;stroke-miterlimit:10;}
	.st50{fill:#FFFFFF;stroke:#29ABE2;stroke-width:3.1655;stroke-miterlimit:10;}
	.st51{fill:#FFFFFF;stroke:#29ABE2;stroke-width:4.1627;stroke-miterlimit:10;}
	.st52{fill:#FFFFFF;stroke:#29ABE2;stroke-width:3.9033;stroke-miterlimit:10;}
	.st53{fill:#FFFFFF;stroke:#29ABE2;stroke-width:2.8887;stroke-miterlimit:10;}
	.st54{fill:#FFFFFF;stroke:#29ABE2;stroke-width:4.7347;stroke-miterlimit:10;}
	.st55{fill:#FFFFFF;stroke:#29ABE2;stroke-width:1.6419;stroke-miterlimit:10;}
	.st56{fill:#FFFFFF;stroke:#29ABE2;stroke-width:1.7017;stroke-miterlimit:10;}
	.st57{fill:#FFFFFF;stroke:#29ABE2;stroke-width:2.8417;stroke-miterlimit:10;}
	.st58{fill:#FFFFFF;stroke:#29ABE2;stroke-width:3.2487;stroke-miterlimit:10;}
	.st59{fill:#FFFFFF;stroke:#29ABE2;stroke-width:2.0682;stroke-miterlimit:10;}
	.st60{fill:#FFFFFF;stroke:#29ABE2;stroke-width:2.418;stroke-miterlimit:10;}
	.st61{fill:#FFFFFF;stroke:#29ABE2;stroke-width:2.6818;stroke-miterlimit:10;}
	.st62{fill:#FFFFFF;stroke:#29ABE2;stroke-width:3.3255;stroke-miterlimit:10;}
	.st63{fill:#FFFFFF;stroke:#29ABE2;stroke-width:5.0957;stroke-miterlimit:10;}
	.st64{fill:#FFFFFF;stroke:#29ABE2;stroke-width:4.4121;stroke-miterlimit:10;}
	.st65{fill:#FFFFFF;stroke:#29ABE2;stroke-width:2.721;stroke-miterlimit:10;}
	.st66{fill:#FFFFFF;stroke:#29ABE2;stroke-width:2.1442;stroke-miterlimit:10;}
	.st67{opacity:7.000000e-02;}
	.st68{fill:#FFFFFF;stroke:#29ABE2;stroke-width:7.8272;stroke-miterlimit:10;}
	.st69{fill:#FFFFFF;stroke:#29ABE2;stroke-width:5.4383;stroke-miterlimit:10;}
	.st70{fill:#FFFFFF;stroke:#29ABE2;stroke-width:5.7255;stroke-miterlimit:10;}
	.st71{fill:#FFFFFF;stroke:#29ABE2;stroke-width:6.363;stroke-miterlimit:10;}
	.st72{fill:#FFFFFF;stroke:#29ABE2;stroke-width:7.9423;stroke-miterlimit:10;}
	.st73{fill:#FFFFFF;stroke:#29ABE2;stroke-width:4.1523;stroke-miterlimit:10;}
	.st74{fill:#FFFFFF;stroke:#29ABE2;stroke-width:3.281;stroke-miterlimit:10;}
	.st75{fill:#FFFFFF;stroke:#29ABE2;stroke-width:3.0105;stroke-miterlimit:10;}
	.st76{fill:#FFFFFF;stroke:#29ABE2;stroke-width:2.4897;stroke-miterlimit:10;}
	.st77{fill:#FFFFFF;stroke:#29ABE2;stroke-width:4.2363;stroke-miterlimit:10;}
	.st78{fill:#FFFFFF;stroke:#29ABE2;stroke-width:4.4239;stroke-miterlimit:10;}
	.st79{fill:#FFFFFF;stroke:#29ABE2;stroke-width:5.8175;stroke-miterlimit:10;}
	.st80{fill:#FFFFFF;stroke:#29ABE2;stroke-width:5.4549;stroke-miterlimit:10;}
	.st81{fill:#FFFFFF;stroke:#29ABE2;stroke-width:4.037;stroke-miterlimit:10;}
	.st82{fill:#FFFFFF;stroke:#29ABE2;stroke-width:6.6168;stroke-miterlimit:10;}
	.st83{fill:#FFFFFF;stroke:#29ABE2;stroke-width:2.2945;stroke-miterlimit:10;}
	.st84{fill:#FFFFFF;stroke:#29ABE2;stroke-width:2.3781;stroke-miterlimit:10;}
	.st85{fill:#FFFFFF;stroke:#29ABE2;stroke-width:3.9714;stroke-miterlimit:10;}
	.st86{fill:#FFFFFF;stroke:#29ABE2;stroke-width:4.54;stroke-miterlimit:10;}
	.st87{fill:#FFFFFF;stroke:#29ABE2;stroke-width:2.8904;stroke-miterlimit:10;}
	.st88{fill:#FFFFFF;stroke:#29ABE2;stroke-width:3.3791;stroke-miterlimit:10;}
	.st89{fill:#FFFFFF;stroke:#29ABE2;stroke-width:3.7479;stroke-miterlimit:10;}
	.st90{fill:#FFFFFF;stroke:#29ABE2;stroke-width:4.6474;stroke-miterlimit:10;}
	.st91{opacity:0.2;}
	.st92{fill:#FFFFFF;}
	.st93{fill:#FFFFFF;stroke:#29ABE2;stroke-width:2.9366;stroke-miterlimit:10;}
	.st94{fill:#FFFFFF;stroke:#29ABE2;stroke-width:2.5427;stroke-miterlimit:10;}
	.st95{fill:#FFFFFF;stroke:#29ABE2;stroke-width:1.5681;stroke-miterlimit:10;}
	.st96{fill:#FFFFFF;stroke:#29ABE2;stroke-width:1.2357;stroke-miterlimit:10;}
	.st97{fill:#FFFFFF;stroke:#29ABE2;stroke-width:4.5108;stroke-miterlimit:10;}
	.st98{fill:#FFFFFF;stroke:#29ABE2;stroke-width:3.134;stroke-miterlimit:10;}
	.st99{fill:#FFFFFF;stroke:#29ABE2;stroke-width:3.2996;stroke-miterlimit:10;}
	.st100{fill:#FFFFFF;stroke:#29ABE2;stroke-width:3.6669;stroke-miterlimit:10;}
	.st101{fill:#FFFFFF;stroke:#29ABE2;stroke-width:4.5771;stroke-miterlimit:10;}
	.st102{fill:#FFFFFF;stroke:#29ABE2;stroke-width:2.3929;stroke-miterlimit:10;}
	.st103{fill:#FFFFFF;stroke:#29ABE2;stroke-width:1.8908;stroke-miterlimit:10;}
	.st104{fill:#FFFFFF;stroke:#29ABE2;stroke-width:1.735;stroke-miterlimit:10;}
	.st105{fill:#FFFFFF;stroke:#29ABE2;stroke-width:1.4348;stroke-miterlimit:10;}
	.st106{fill:#FFFFFF;stroke:#29ABE2;stroke-width:2.4413;stroke-miterlimit:10;}
	.st107{fill:#FFFFFF;stroke:#29ABE2;stroke-width:2.5494;stroke-miterlimit:10;}
	.st108{fill:#FFFFFF;stroke:#29ABE2;stroke-width:3.3526;stroke-miterlimit:10;}
	.st109{fill:#FFFFFF;stroke:#29ABE2;stroke-width:3.1436;stroke-miterlimit:10;}
	.st110{fill:#FFFFFF;stroke:#29ABE2;stroke-width:2.3265;stroke-miterlimit:10;}
	.st111{fill:#FFFFFF;stroke:#29ABE2;stroke-width:3.8132;stroke-miterlimit:10;}
	.st112{fill:#FFFFFF;stroke:#29ABE2;stroke-width:1.3223;stroke-miterlimit:10;}
	.st113{fill:#FFFFFF;stroke:#29ABE2;stroke-width:1.3705;stroke-miterlimit:10;}
	.st114{fill:#FFFFFF;stroke:#29ABE2;stroke-width:2.2887;stroke-miterlimit:10;}
	.st115{fill:#FFFFFF;stroke:#29ABE2;stroke-width:2.6164;stroke-miterlimit:10;}
	.st116{fill:#FFFFFF;stroke:#29ABE2;stroke-width:1.6657;stroke-miterlimit:10;}
	.st117{fill:#FFFFFF;stroke:#29ABE2;stroke-width:1.9474;stroke-miterlimit:10;}
	.st118{fill:#FFFFFF;stroke:#29ABE2;stroke-width:2.1599;stroke-miterlimit:10;}
	.st119{fill:#FFFFFF;stroke:#29ABE2;stroke-width:2.6783;stroke-miterlimit:10;}
	.st120{fill:#C1272D;}
	.st121{fill:#F15A24;}
	.st122{fill:#FFFFFF;stroke:#29ABE2;stroke-width:4.2006;stroke-miterlimit:10;}
	.st123{fill:#FFFFFF;stroke:#29ABE2;stroke-width:2.9186;stroke-miterlimit:10;}
	.st124{fill:#FFFFFF;stroke:#29ABE2;stroke-width:3.0727;stroke-miterlimit:10;}
	.st125{fill:#FFFFFF;stroke:#29ABE2;stroke-width:3.4148;stroke-miterlimit:10;}
	.st126{fill:#FFFFFF;stroke:#29ABE2;stroke-width:4.2624;stroke-miterlimit:10;}
	.st127{fill:#FFFFFF;stroke:#29ABE2;stroke-width:2.2284;stroke-miterlimit:10;}
	.st128{fill:#FFFFFF;stroke:#29ABE2;stroke-width:1.7608;stroke-miterlimit:10;}
	.st129{fill:#FFFFFF;stroke:#29ABE2;stroke-width:1.2314;stroke-miterlimit:10;}
	.st130{fill:#FFFFFF;stroke:#29ABE2;stroke-width:1.6157;stroke-miterlimit:10;}
	.st131{fill:#FFFFFF;stroke:#29ABE2;stroke-width:1.3362;stroke-miterlimit:10;}
	.st132{fill:#FFFFFF;stroke:#29ABE2;stroke-width:2.2735;stroke-miterlimit:10;}
	.st133{fill:#FFFFFF;stroke:#29ABE2;stroke-width:2.3742;stroke-miterlimit:10;}
	.st134{fill:#FFFFFF;stroke:#29ABE2;stroke-width:3.1221;stroke-miterlimit:10;}
	.st135{fill:#FFFFFF;stroke:#29ABE2;stroke-width:2.9275;stroke-miterlimit:10;}
	.st136{fill:#FFFFFF;stroke:#29ABE2;stroke-width:2.1666;stroke-miterlimit:10;}
	.st137{fill:#FFFFFF;stroke:#29ABE2;stroke-width:3.551;stroke-miterlimit:10;}
	.st138{fill:#FFFFFF;stroke:#29ABE2;stroke-width:1.2763;stroke-miterlimit:10;}
	.st139{fill:#FFFFFF;stroke:#29ABE2;stroke-width:2.1313;stroke-miterlimit:10;}
	.st140{fill:#FFFFFF;stroke:#29ABE2;stroke-width:2.7347;stroke-miterlimit:10;}
	.st141{fill:#FFFFFF;stroke:#29ABE2;stroke-width:2.4365;stroke-miterlimit:10;}
	.st142{fill:#FFFFFF;stroke:#29ABE2;stroke-width:2.3678;stroke-miterlimit:10;}
	.st143{fill:#FFFFFF;stroke:#29ABE2;stroke-width:1.5512;stroke-miterlimit:10;}
	.st144{fill:#FFFFFF;stroke:#29ABE2;stroke-width:1.8135;stroke-miterlimit:10;}
	.st145{fill:#FFFFFF;stroke:#29ABE2;stroke-width:1.4603;stroke-miterlimit:10;}
	.st146{fill:#FFFFFF;stroke:#29ABE2;stroke-width:1.1507;stroke-miterlimit:10;}
	.st147{fill:#FFFFFF;stroke:#29ABE2;stroke-width:2.0114;stroke-miterlimit:10;}
	.st148{fill:#FFFFFF;stroke:#29ABE2;stroke-width:2.4941;stroke-miterlimit:10;}
	.st149{fill:#FFFFFF;stroke:#29ABE2;stroke-width:4.2426;stroke-miterlimit:10;}
	.st150{fill:#FFFFFF;stroke:#29ABE2;stroke-width:3.6735;stroke-miterlimit:10;}
	.st151{fill:#FFFFFF;stroke:#29ABE2;stroke-width:2.2655;stroke-miterlimit:10;}
	.st152{fill:#FFFFFF;stroke:#29ABE2;stroke-width:1.7852;stroke-miterlimit:10;}
	.st153{fill:#FFFFFF;stroke:#29ABE2;stroke-width:6.5168;stroke-miterlimit:10;}
	.st154{fill:#FFFFFF;stroke:#29ABE2;stroke-width:4.5278;stroke-miterlimit:10;}
	.st155{fill:#FFFFFF;stroke:#29ABE2;stroke-width:4.767;stroke-miterlimit:10;}
	.st156{fill:#FFFFFF;stroke:#29ABE2;stroke-width:5.2977;stroke-miterlimit:10;}
	.st157{fill:#FFFFFF;stroke:#29ABE2;stroke-width:6.6127;stroke-miterlimit:10;}
	.st158{fill:#FFFFFF;stroke:#29ABE2;stroke-width:3.4572;stroke-miterlimit:10;}
	.st159{fill:#FFFFFF;stroke:#29ABE2;stroke-width:2.7317;stroke-miterlimit:10;}
	.st160{fill:#FFFFFF;stroke:#29ABE2;stroke-width:2.5065;stroke-miterlimit:10;}
	.st161{fill:#FFFFFF;stroke:#29ABE2;stroke-width:2.0729;stroke-miterlimit:10;}
	.st162{fill:#FFFFFF;stroke:#29ABE2;stroke-width:3.5271;stroke-miterlimit:10;}
	.st163{fill:#FFFFFF;stroke:#29ABE2;stroke-width:3.6833;stroke-miterlimit:10;}
	.st164{fill:#FFFFFF;stroke:#29ABE2;stroke-width:4.8436;stroke-miterlimit:10;}
	.st165{fill:#FFFFFF;stroke:#29ABE2;stroke-width:4.5417;stroke-miterlimit:10;}
	.st166{fill:#FFFFFF;stroke:#29ABE2;stroke-width:3.3612;stroke-miterlimit:10;}
	.st167{fill:#FFFFFF;stroke:#29ABE2;stroke-width:5.5091;stroke-miterlimit:10;}
	.st168{fill:#FFFFFF;stroke:#29ABE2;stroke-width:1.9104;stroke-miterlimit:10;}
	.st169{fill:#FFFFFF;stroke:#29ABE2;stroke-width:1.98;stroke-miterlimit:10;}
	.st170{fill:#FFFFFF;stroke:#29ABE2;stroke-width:3.3065;stroke-miterlimit:10;}
	.st171{fill:#FFFFFF;stroke:#29ABE2;stroke-width:3.78;stroke-miterlimit:10;}
	.st172{fill:#FFFFFF;stroke:#29ABE2;stroke-width:2.4065;stroke-miterlimit:10;}
	.st173{fill:#FFFFFF;stroke:#29ABE2;stroke-width:2.8134;stroke-miterlimit:10;}
	.st174{fill:#FFFFFF;stroke:#29ABE2;stroke-width:3.1204;stroke-miterlimit:10;}
	.st175{fill:#FFFFFF;stroke:#29ABE2;stroke-width:3.8694;stroke-miterlimit:10;}
	.st176{fill:none;stroke:#176999;stroke-width:3;stroke-miterlimit:10;}
	.st177{fill:#176999;}
</style>
<rect class="st92" width="369" height="289"/>
<g>
	<path d="M228.3,35.6c6.4,2.1,12.6,5,18.3,8.4c3.7-0.2,7.3-0.7,10.2-1.2c1.8-0.3,3.6-0.6,5.4-0.8c-9.8-6.4-20.5-11.2-31.7-14
		c-0.3-0.1-0.6-0.1-1-0.1c-1.8,0-3.4,1.2-3.8,3C225.2,32.9,226.3,35,228.3,35.6z"/>
	<path d="M288.3,148.8c0.4,0.9,0.8,1.8,1.3,2.7c1.4,2.8,3.2,5.9,5.6,9.6c1.3,2.1,2.7,4.2,4.2,6.4c0.8,1.3,1.7,2.6,2.5,3.9
		c0,0.1,0.1,0.1,0.1,0.2c3.4-8.4,5.7-17.3,6.9-26.2c1.6-11.7,1.2-23.6-1-35.1c-0.2-1.1-0.4-2.2-0.7-3.3c-0.1-0.6-0.3-1.1-0.4-1.7
		c-1-4.3-2.4-8.5-3.9-12.6c-0.4-1-0.8-2-1.2-3c-3-7.2-6.8-14.1-11.3-20.5c-3.7-5.2-7.8-10.1-12.4-14.5c-0.5,0-0.9,0-1.4,0
		c-1.7,0.1-3.6,0.2-5.9,0.4c-2.1,0.2-4.3,0.4-6.5,0.6c-0.6,0.1-1.2,0.1-1.8,0.2c6.6,6.1,12.2,13.1,16.8,20.7
		c4.1,6.8,7.2,14.2,9.4,21.7c0.3,1,0.6,2.1,0.8,3.1c0.6,2.4,1.1,4.8,1.5,7.2c0.5,3.3,0.9,6.6,1.1,10c0.1,1.5,0.1,2.9,0.1,4.4
		c0,6.5-0.7,12.9-2,19.2C289.5,144.4,289,146.6,288.3,148.8z"/>
	<path d="M312,197.9c-1.5-5.2-3.6-9.6-5.8-13.6c-1.8-3.3-3.7-6.4-5.6-9.3c-0.4-0.7-0.8-1.3-1.3-1.9c-0.4-0.7-0.8-1.3-1.3-1.9
		c-0.8-1.2-1.6-2.4-2.3-3.6c-0.5-0.8-1.1-1.6-1.6-2.4c-0.5-0.8-1-1.6-1.5-2.4c-0.6-0.9-1.2-1.8-1.7-2.7c-0.2-0.3-0.4-0.6-0.6-0.9
		c-0.2-0.4-0.5-0.8-0.7-1.2c-0.2-0.4-0.5-0.8-0.7-1.2c-0.2-0.4-0.5-0.8-0.7-1.2c-0.2-0.3-0.3-0.6-0.5-0.9c0,0,0,0,0-0.1
		c-0.1-0.2-0.2-0.3-0.3-0.5c-0.2-0.3-0.3-0.6-0.5-1c0,0-0.1-0.1-0.1-0.1c-0.1-0.2-0.2-0.5-0.4-0.7c-0.1-0.2-0.2-0.5-0.4-0.7
		c-0.1-0.2-0.2-0.5-0.3-0.7c-0.2-0.5-0.4-0.9-0.6-1.4c0,0,0-0.1,0-0.1c0-0.1-0.1-0.2-0.1-0.3c-0.8-1.9-1.4-3.8-1.9-5.6
		c-0.8-3.1-0.9-6-0.4-8.7c0.1-0.7,0.3-1.4,0.5-2.1l0.2-0.5c0.1-0.2,0.1-0.3,0.2-0.5l0.4-1.2c0.6-1.5,1.4-3,2.2-4.5
		c0.8-1.4,1.7-2.7,2.7-4c0-1.1-0.1-2.1-0.1-3.2c-0.2-3.2-0.5-6.5-1-9.6c-0.3-2-0.7-3.9-1.2-5.9c-1.4,1-2.9,2.1-4.2,3.2
		c-3.6,3.1-7,6.6-9.8,10.7c-1.4,2-2.6,4.2-3.7,6.4l-0.8,1.7c-0.1,0.3-0.3,0.6-0.4,0.9l-0.4,0.9c-0.5,1.3-0.9,2.6-1.2,3.9
		c-0.7,2.7-1,5.4-1.1,8.1c-0.1,2.7,0.2,5.3,0.6,7.8c0.9,5,2.4,9.6,4.3,13.9c1.8,4.2,3.9,8.2,5.9,12c0.2,0.4,0.4,0.7,0.6,1.1
		c1.9,3.4,3.8,6.7,5.6,9.9c2,3.5,3.8,7,5.4,10.3c0.3,0.7,0.7,1.4,1,2.2c1.1,2.6,1.9,5,2.4,7.2c0.3,1.4,0.4,2.7,0.4,3.9
		c0,1.2-0.2,2.2-0.5,3.1c-0.3,0.9-0.7,1.8-1.3,2.7c-0.6,0.9-1.3,1.8-2.3,2.8c-0.3,0.2-0.5,0.5-0.7,0.7l-0.8,0.7
		c-0.6,0.4-1.1,0.9-1.7,1.3c-1.2,0.8-2.4,1.6-3.8,2.3c-5.4,2.8-12,4.3-19.1,4.9c-2,0.2-4.1,0.3-6.2,0.3c1.8-1.1,3.6-2.2,5.4-3.3
		c3.3-2.2,6.4-4.5,9.4-7c6.1-5,11.7-10.7,16.5-16.8c-0.4-1.2-1-2.4-1.6-3.7c-1.6-3.4-3.6-7-5.3-10.1c-0.7-1.3-1.4-2.5-2.2-3.8
		c-0.9-1.5-1.8-3.1-2.7-4.8c-5.6,7.5-12.4,14.1-20,19.4c-7.1,5-14.9,8.8-23,11.4l-1.1,0c17.3-17.6,28.6-44.3,28.6-66.6
		c0-30.5-21.3-56.3-50.2-64.2c-6-1.6-12.2-2.5-18.7-2.5h-0.2c-6.6,0-12.9,0.9-18.9,2.6c-28.8,8-49.9,33.7-49.9,64.1
		c0,22.2,11.2,48.8,28.5,66.4l-1.2,0c-7.9-2.6-15.6-6.4-22.5-11.2c-7.6-5.3-14.4-11.9-20-19.4c-0.9,1.6-1.8,3.2-2.7,4.8
		c-0.7,1.3-1.5,2.6-2.2,3.8c-1.7,3.1-3.7,6.6-5.3,10.1c-0.6,1.3-1.1,2.5-1.6,3.7c4.9,6.2,10.4,11.8,16.5,16.8c3,2.5,6.2,4.8,9.4,7
		c1.8,1.2,3.5,2.3,5.4,3.3c-2.1,0-4.1-0.1-6.2-0.3c-7.1-0.6-13.7-2.2-19.1-4.9c-1.4-0.7-2.6-1.5-3.8-2.3c-0.6-0.4-1.1-0.9-1.7-1.3
		l-0.8-0.7c-0.3-0.2-0.5-0.5-0.7-0.7c-0.9-0.9-1.7-1.9-2.3-2.8c-0.6-0.9-1-1.8-1.3-2.7c-0.3-0.9-0.5-1.9-0.5-3.1
		c0-1.2,0.1-2.5,0.4-3.9c0.4-2.2,1.3-4.7,2.4-7.2c0.3-0.7,0.6-1.4,1-2.2c1.5-3.3,3.4-6.8,5.4-10.3c1.8-3.2,3.7-6.5,5.6-9.9
		c0.2-0.4,0.4-0.7,0.6-1.1c2.1-3.8,4.1-7.7,5.9-12c1.8-4.2,3.4-8.8,4.3-13.9c0.4-2.5,0.7-5.1,0.6-7.8c-0.1-2.7-0.4-5.4-1.1-8.1
		c-0.3-1.3-0.7-2.6-1.2-3.9l-0.4-0.9c-0.1-0.3-0.3-0.6-0.4-0.9l-0.8-1.7c-1.1-2.2-2.3-4.4-3.7-6.4c-2.8-4.1-6.2-7.7-9.8-10.7
		c-1.4-1.2-2.8-2.2-4.2-3.2c-0.5,2-0.9,4-1.2,5.9c-0.5,3.2-0.9,6.4-1,9.6c-0.1,1-0.1,2.1-0.1,3.2c1,1.3,1.9,2.6,2.7,4
		c0.8,1.4,1.6,2.9,2.2,4.5l0.4,1.2c0.1,0.2,0.1,0.4,0.2,0.5l0.2,0.5c0.2,0.7,0.4,1.4,0.5,2.1c0.5,2.8,0.3,5.6-0.4,8.7
		c-0.4,1.8-1.1,3.7-1.9,5.6c0,0.1-0.1,0.2-0.1,0.3c0,0,0,0.1,0,0.1c-0.2,0.5-0.4,0.9-0.6,1.4c-0.1,0.2-0.2,0.5-0.3,0.7
		c-0.1,0.2-0.2,0.5-0.4,0.7c-0.1,0.2-0.2,0.5-0.4,0.7c0,0-0.1,0.1-0.1,0.1c-0.2,0.3-0.3,0.6-0.5,1c-0.1,0.2-0.2,0.3-0.3,0.5
		c0,0,0,0,0,0.1c-0.2,0.3-0.3,0.6-0.5,0.9c-0.2,0.4-0.5,0.8-0.7,1.2c-0.2,0.4-0.5,0.8-0.7,1.2c-0.2,0.4-0.5,0.8-0.7,1.2
		c-0.2,0.3-0.4,0.6-0.6,0.9c-0.6,0.9-1.1,1.8-1.7,2.7c-0.5,0.8-1,1.6-1.5,2.4c-0.5,0.8-1,1.6-1.6,2.4c-0.8,1.2-1.6,2.4-2.3,3.6
		c-0.4,0.6-0.8,1.3-1.3,1.9c-0.4,0.6-0.8,1.3-1.3,1.9c-1.9,2.9-3.8,6-5.6,9.3c-2.2,4-4.3,8.4-5.8,13.6c-0.7,2.6-1.3,5.4-1.4,8.3
		c-0.2,3,0,6.1,0.6,9.2c0.7,3.1,1.8,6.1,3.2,8.8c1.4,2.7,3.2,5.1,5,7.2c0.5,0.5,0.9,1.1,1.4,1.6l1.4,1.5c1,0.9,2,1.8,3,2.7
		c2.1,1.7,4.2,3.3,6.5,4.6c2.2,1.4,4.5,2.6,6.9,3.6c2.3,1,4.7,1.9,7,2.7c2.4,0.8,4.7,1.4,7.1,2c2.3,0.5,4.7,1,7,1.3
		c9.3,1.4,18.5,1.6,27.5,1.2c9-0.5,17.7-1.5,26.4-3.1c4.3-0.8,8.6-1.6,12.9-2.6c2.1-0.5,4.3-1,6.4-1.6c0.3-0.1,0.6-0.2,0.9-0.2
		c0.3,0.1,0.6,0.2,0.9,0.2c2.1,0.6,4.3,1.1,6.4,1.6c4.3,1,8.6,1.9,12.9,2.6c8.7,1.5,17.4,2.6,26.4,3.1c9,0.4,18.1,0.3,27.5-1.2
		c2.3-0.4,4.7-0.8,7-1.3c2.3-0.5,4.7-1.2,7.1-2c2.4-0.8,4.7-1.7,7-2.7c2.3-1,4.6-2.3,6.9-3.6c2.2-1.3,4.4-2.9,6.5-4.6
		c1-0.8,2-1.8,3-2.7l1.4-1.5c0.5-0.5,0.9-1,1.4-1.6c1.8-2.1,3.6-4.5,5-7.2c1.4-2.7,2.6-5.7,3.2-8.8c0.7-3.1,0.8-6.2,0.6-9.2
		C313.2,203.3,312.7,200.5,312,197.9z"/>
	<path d="M323,77.2l-0.1-1.9c-0.3-2.5-0.7-5-1.5-7.3c-0.8-2.4-1.7-4.6-2.9-6.8c-2.4-4.3-5.6-8-9.6-11c-0.5-0.4-1-0.7-1.5-1.1l-1.6-1
		c-1.1-0.6-2.1-1.2-3.2-1.7c-2.2-1-4.4-1.7-6.7-2.3c-2.3-0.6-4.5-0.9-6.8-1.1c-2.2-0.2-4.5-0.3-6.7-0.3c-2.2,0-4.4,0.2-6.6,0.4
		c-2.1,0.2-4.2,0.5-6.3,0.8c-1.2,0.2-2.4,0.4-3.6,0.5c-2.9,0.5-5.8,0.9-8.7,1.3c-2.1,0.3-4.2,0.6-6.4,0.8c-1.9,0.2-3.8,0.4-5.6,0.4
		c-4,0.2-7.9,0.1-11.7-0.6c-3.1-0.5-6.1-1.4-8.9-2.7c-0.3-0.1-0.7-0.2-1-0.2c-0.9,0-1.7,0.5-2.2,1.3c-0.7,1.2-0.2,2.8,1,3.4
		c3.1,1.6,6.5,2.9,9.9,3.7c4.3,1,8.6,1.5,12.9,1.5c4.7,0.1,9.3-0.2,13.9-0.6c0.1,0,0.2,0,0.3,0c3.1-0.3,6.2-0.6,9.3-0.8
		c0.1,0,0.2,0,0.2,0c0.4,0,0.9-0.1,1.3-0.1c0,0,0,0,0.1,0c0.4,0,0.9-0.1,1.3-0.1c0.4,0,0.8-0.1,1.2-0.1c0.3,0,0.6,0,1-0.1
		c0.3,0,0.6,0,1-0.1c0.5,0,1.1-0.1,1.6-0.1c0.4,0,0.8,0,1.2,0h0.1c0.1,0,0.2,0,0.3,0c0.4,0,0.8,0,1.3,0c1,0,2,0,3.1,0.1
		c3.8,0.2,7.6,0.7,11,1.9c1.7,0.6,3.4,1.2,4.9,2.1c0.8,0.4,1.5,0.9,2.2,1.3l1,0.7c0.3,0.2,0.6,0.5,1,0.8c2.6,2.2,4.6,5,6.1,8
		c0.7,1.5,1.3,3.1,1.7,4.7c0.4,1.6,0.6,3.3,0.6,4.9l0,1.2l-0.1,1.2c0,0.4-0.1,0.8-0.2,1.2l-0.2,1.2c-0.4,1.6-0.7,3.1-1.4,4.4
		c-0.3,0.7-0.7,1.3-1.1,2c-0.2,0.3-0.4,0.6-0.7,0.9l-0.3,0.5l-0.4,0.4c-0.4,0.5-0.8,0.9-1.2,1.3c0.1,0.4,0.3,0.7,0.4,1.1
		c1.6,4.2,3,8.5,4,12.9c0,0.1,0.1,0.2,0.1,0.3c0.3-0.3,0.6-0.5,1-0.8l1.3-1.2c1.8-1.7,3.5-3.5,5-5.6l0.6-0.8
		c0.2-0.3,0.3-0.6,0.5-0.8c0.3-0.6,0.7-1.1,1-1.7c0.6-1.2,1.2-2.4,1.6-3.6l0.3-0.9c0.1-0.3,0.2-0.6,0.3-0.9l0.5-1.9
		c0.2-0.6,0.3-1.3,0.4-1.9l0.3-1.9l0.2-1.9c0-0.6,0.1-1.2,0.1-1.9L323,77.2z"/>
	<path d="M133.7,44c5.8-3.4,11.9-6.3,18.3-8.4c1.9-0.6,3.1-2.7,2.6-4.7c-0.4-1.8-2-3-3.8-3c-0.3,0-0.6,0-1,0.1
		c-11.2,2.8-22,7.5-31.7,14c1.8,0.3,3.6,0.6,5.4,0.8C126.3,43.3,130,43.8,133.7,44z"/>
	<path d="M89.4,108.6c0.4-2.4,0.9-4.8,1.5-7.2c0.3-1,0.5-2.1,0.8-3.1c2.2-7.6,5.3-14.9,9.4-21.7c4.5-7.6,10.2-14.6,16.8-20.7
		c-0.6-0.1-1.2-0.1-1.8-0.2c-2.2-0.2-4.4-0.4-6.5-0.6c-2.3-0.2-4.2-0.3-5.9-0.4c-0.5,0-1,0-1.4,0c-4.5,4.4-8.7,9.3-12.4,14.5
		c-4.5,6.4-8.3,13.2-11.3,20.5c-0.4,1-0.8,2-1.2,3c-1.6,4.1-2.9,8.3-3.9,12.6c-0.1,0.6-0.3,1.1-0.4,1.7c-0.3,1.1-0.5,2.2-0.7,3.3
		c-2.2,11.5-2.6,23.4-1,35.1c1.2,8.9,3.5,17.7,6.9,26.2c0-0.1,0.1-0.1,0.1-0.2c0.9-1.3,1.7-2.6,2.5-3.9c1.5-2.2,2.8-4.3,4.2-6.4
		c2.4-3.7,4.2-6.8,5.6-9.6c0.5-0.9,0.9-1.8,1.3-2.7c-0.6-2.2-1.2-4.4-1.7-6.6c-1.4-6.3-2-12.7-2-19.2c0-1.5,0-2.9,0.1-4.4
		C88.5,115.2,88.9,111.9,89.4,108.6z"/>
	<path d="M68.1,102.9l1.3,1.2c0.3,0.3,0.6,0.5,1,0.8c0-0.1,0.1-0.2,0.1-0.3c1.1-4.4,2.4-8.7,4-12.9c0.1-0.4,0.3-0.7,0.4-1.1
		c-0.4-0.4-0.8-0.9-1.2-1.3l-0.4-0.4l-0.3-0.5c-0.2-0.3-0.4-0.6-0.7-0.9c-0.4-0.7-0.8-1.3-1.1-2c-0.7-1.3-1.1-2.9-1.4-4.4l-0.2-1.2
		c-0.1-0.4-0.2-0.8-0.2-1.2l-0.1-1.2l0-1.2c0.1-1.6,0.3-3.3,0.6-4.9c0.4-1.6,1-3.2,1.7-4.7c1.5-3,3.5-5.8,6.1-8
		c0.3-0.3,0.6-0.6,1-0.8l1-0.7c0.7-0.5,1.4-0.9,2.2-1.3c1.5-0.8,3.2-1.5,4.9-2.1c3.4-1.1,7.2-1.7,11-1.9c1-0.1,2-0.1,3.1-0.1
		c0.4,0,0.8,0,1.3,0c0.1,0,0.2,0,0.3,0h0.1c0.4,0,0.8,0,1.2,0c0.5,0,1.1,0,1.6,0.1c0.3,0,0.6,0,1,0.1c0.3,0,0.6,0,1,0.1
		c0.4,0,0.8,0.1,1.2,0.1c0.4,0,0.9,0.1,1.3,0.1c0,0,0,0,0.1,0c0.4,0,0.9,0.1,1.3,0.1c0.1,0,0.2,0,0.2,0c3.1,0.3,6.2,0.6,9.3,0.8
		c0.1,0,0.2,0,0.3,0c4.6,0.4,9.2,0.7,13.9,0.6c4.3-0.1,8.7-0.5,12.9-1.5c3.4-0.8,6.8-2.1,9.9-3.7c1.3-0.7,1.7-2.2,1-3.4
		c-0.5-0.8-1.3-1.3-2.2-1.3c-0.3,0-0.7,0.1-1,0.2c-2.9,1.3-5.9,2.1-8.9,2.7c-3.8,0.7-7.8,0.8-11.7,0.6c-1.9-0.1-3.7-0.2-5.6-0.4
		c-2.1-0.2-4.2-0.5-6.4-0.8c-2.9-0.4-5.7-0.9-8.7-1.3c-1.2-0.2-2.4-0.4-3.6-0.5c-2.1-0.3-4.2-0.6-6.3-0.8c-2.2-0.2-4.3-0.4-6.6-0.4
		c-2.2,0-4.4,0-6.7,0.3c-2.3,0.2-4.5,0.6-6.8,1.1c-2.3,0.6-4.5,1.3-6.7,2.3c-1.1,0.5-2.2,1.1-3.2,1.7l-1.6,1c-0.5,0.3-1,0.7-1.5,1.1
		c-3.9,2.9-7.2,6.7-9.6,11c-1.2,2.1-2.2,4.4-2.9,6.8c-0.7,2.4-1.2,4.8-1.5,7.3l-0.1,1.9l0,1.9c0,0.6,0.1,1.2,0.1,1.9l0.2,1.9
		l0.3,1.9c0.1,0.6,0.2,1.3,0.4,1.9l0.5,1.9c0.1,0.3,0.2,0.6,0.3,0.9l0.3,0.9c0.4,1.2,1.1,2.4,1.6,3.6c0.3,0.6,0.7,1.1,1,1.7
		c0.2,0.3,0.3,0.6,0.5,0.8l0.6,0.8C64.6,99.4,66.4,101.2,68.1,102.9z"/>
</g>
</svg>
